<svg xmlns="http://www.w3.org/2000/svg" width="805.7" height="478" viewBox="0 0 805.7 478"><style type="text/css">.st0{fill:#FFFFFF;stroke:#231F20;stroke-width:0.25;stroke-miterlimit:10;}</style><path class="st0" d="M290.9 296.2s61-38 119-59c13-5.1 25.9-10.4 38.7-15.7 9.5-3.9 18.9-8 28.3-11.9 11-4.6 20.2-10.8 32.2-12.9 10.5-1.8 21.1-3.2 31.7-4.4 0 0 125.5-15.5 121.5-96 0 0-4-22.5-27-48.5 0 0-15.5-16.5-19.5-30 0 0-5.5-22 9-11 0 0 25 20.5 48 17.5 0 0 20.5-6.5 16 13.5 0 0-1 17.5 15.5-4 0 0 10.5-17 26.5-7 0 0 21.5 10.5 60 11 0 0 22.5-3.5 2.5 12-24.9 14.8-49.8 29.4-76.6 40.3-9.5 3.9-16.1 11.3-18.9 21.2-5.8 39.3-15.8 79.3-31.2 116-12.7 30.5-33 53.5-57.2 75.4-23.5 21.3-48.7 42-76.9 56.9-5.1 2.7-10.3 5.2-15.7 7.3l-40.5 13s41 29 15 31.5c-24.9 2.4-49.4 2.6-71.5-11.8-.8-.5-1.5-1-2.4-1.4-11.9-5.9-34.3 1.7-46.6 3.3 0 0-73 9.5-97 8 0 0-25 0-38-16 0 0-9.5 3.5-15.5 3 0 0-11.5 2.5-13.5 6 0 0-4 2.5-13 3.5 0 0-16.5 4-18 7 0 0-8 5-20.5 6 0 0-14.5 2-18.5 8 0 0-6.5 4.5-15.5 5 0 0-14.5 3.5-16.5 6.5 0 0-9.5 5.5-22 6 0 0-15.5 4-16 6.5 0 0-7 4.5-16 5.5 0 0-16 5-18.5 8.5 0 0-23 8-29.5 8.5 0 0 4.5-7 17.5-11.5 0 0 12.5-5 16.5-7.5 0 0 6.5-4 17.5-6.5 0 0 16-6 19.5-9 0 0 7.5-6.5 14-5.5 0 0 17.5-4 23-9.5 0 0 8.5-6 14.5-6 0 0 19.5-5.5 25.5-10 0 0 7.5-5 15.5-4 0 0 13-3.5 26.5-14 0 0 6-3.5 11.5-1.5 0 0 10.5-5.5 12.5-8 0 0 5-3 10.5-2.5 0 0-1.5-51 17-61.5 0 0 11.5-8 25.5-10 .1-.3 16.1-7.3 21.1-10.3z"/></svg>