<?xml version="1.0" encoding="utf-8"?>
<!-- Generator: Adobe Illustrator 18.1.1, SVG Export Plug-In . SVG Version: 6.00 Build 0)  -->
<svg version="1.1" id="Layer_1" xmlns="http://www.w3.org/2000/svg" xmlns:xlink="http://www.w3.org/1999/xlink" x="0px" y="0px"
	 width="805.7px" height="478px" viewBox="0 0 805.7 478" style="enable-background:new 0 0 805.7 478;" xml:space="preserve">
<style type="text/css">
	.st0{fill:#FFFFFF;stroke:#231F20;stroke-width:0.25;stroke-miterlimit:10;}
</style>
<path class="st0" d="M290.9,296.2c0,0,61-38,119-59c13-5.1,25.9-10.4,38.7-15.7c9.5-3.9,18.9-8,28.3-11.9
	c11-4.6,20.2-10.8,32.2-12.9c10.5-1.8,21.1-3.2,31.7-4.4c0,0,125.5-15.5,121.5-96c0,0-4-22.5-27-48.5c0,0-15.5-16.5-19.5-30
	c0,0-5.5-22,9-11c0,0,25,20.5,48,17.5c0,0,20.5-6.5,16,13.5c0,0-1,17.5,15.5-4c0,0,10.5-17,26.5-7c0,0,21.5,10.5,60,11
	c0,0,22.5-3.5,2.5,12c-24.9,14.8-49.8,29.4-76.6,40.3c-9.5,3.9-16.1,11.3-18.9,21.2c-5.8,39.3-15.8,79.3-31.2,116
	c-12.7,30.5-33,53.5-57.2,75.4c-23.5,21.3-48.7,42-76.9,56.9c-5.1,2.7-10.3,5.2-15.7,7.3l-40.5,13c0,0,41,29,15,31.5
	c-24.9,2.4-49.4,2.6-71.5-11.8c-0.8-0.5-1.5-1-2.4-1.4c-11.9-5.9-34.3,1.7-46.6,3.3c0,0-73,9.5-97,8c0,0-25,0-38-16
	c0,0-9.5,3.5-15.5,3c0,0-11.5,2.5-13.5,6c0,0-4,2.5-13,3.5c0,0-16.5,4-18,7c0,0-8,5-20.5,6c0,0-14.5,2-18.5,8c0,0-6.5,4.5-15.5,5
	c0,0-14.5,3.5-16.5,6.5c0,0-9.5,5.5-22,6c0,0-15.5,4-16,6.5c0,0-7,4.5-16,5.5c0,0-16,5-18.5,8.5c0,0-23,8-29.5,8.5
	c0,0,4.5-7,17.5-11.5c0,0,12.5-5,16.5-7.5c0,0,6.5-4,17.5-6.5c0,0,16-6,19.5-9c0,0,7.5-6.5,14-5.5c0,0,17.5-4,23-9.5
	c0,0,8.5-6,14.5-6c0,0,19.5-5.5,25.5-10c0,0,7.5-5,15.5-4c0,0,13-3.5,26.5-14c0,0,6-3.5,11.5-1.5c0,0,10.5-5.5,12.5-8
	c0,0,5-3,10.5-2.5c0,0-1.5-51,17-61.5c0,0,11.5-8,25.5-10C269.9,306.2,285.9,299.2,290.9,296.2z"/>
<g>
</g>
<g>
</g>
<g>
</g>
<g>
</g>
<g>
</g>
<g>
</g>
<g>
</g>
<g>
</g>
<g>
</g>
<g>
</g>
<g>
</g>
<g>
</g>
<g>
</g>
<g>
</g>
<g>
</g>
</svg>
